<svg width="220" height="190" viewBox="0 0 220 190" xmlns="http://www.w3.org/2000/svg" style="background:#252526; border-radius: 8px;">
  <text x="35" y="35" font-family="sans-serif" font-size="16" font-weight="bold" fill="#f5f5f5">Csus4</text>
  <text x="100" y="33" font-family="sans-serif" font-size="11" fill="#aaa">(x33011)</text>

  <g font-family="sans-serif" font-size="10" fill="#aaa" text-anchor="middle">
    <text x="55" y="54">E</text>
    <text x="75" y="54">A</text>
    <text x="95" y="54">D</text>
    <text x="115" y="54">G</text>
    <text x="135" y="54">B</text>
    <text x="155" y="54">e</text>
  </g>

  <g font-family="sans-serif" font-size="12" fill="#aaa" text-anchor="middle">
    <text x="55" y="68">x</text>
    <text x="115" y="68">o</text>
  </g>

  <line x1="55" y1="76" x2="155" y2="76" stroke="#fff" stroke-width="3"/>

  <line x1="55" y1="98" x2="155" y2="98" stroke="#555" stroke-width="1"/>
  <line x1="55" y1="120" x2="155" y2="120" stroke="#555" stroke-width="1"/>
  <line x1="55" y1="142" x2="155" y2="142" stroke="#555" stroke-width="1"/>
  <line x1="55" y1="164" x2="155" y2="164" stroke="#555" stroke-width="1"/>

  <line x1="55" y1="76" x2="55" y2="164" stroke="#888" stroke-width="2"/>
  <line x1="75" y1="76" x2="75" y2="164" stroke="#888" stroke-width="1.5"/>
  <line x1="95" y1="76" x2="95" y2="164" stroke="#888" stroke-width="1.2"/>
  <line x1="115" y1="76" x2="115" y2="164" stroke="#888" stroke-width="1"/>
  <line x1="135" y1="76" x2="135" y2="164" stroke="#888" stroke-width="0.8"/>
  <line x1="155" y1="76" x2="155" y2="164" stroke="#888" stroke-width="0.6"/>

  <rect x="129" y="82" width="32" height="11" rx="5.5" fill="#007acc"/>
  <text x="145" y="91" font-family="sans-serif" font-size="9" fill="#fff" text-anchor="middle" font-weight="bold">1</text>

  <circle cx="75" cy="131" r="5.5" fill="#007acc"/>
  <text x="75" y="134" font-family="sans-serif" font-size="9" fill="#fff" text-anchor="middle" font-weight="bold">3</text>

  <circle cx="95" cy="131" r="5.5" fill="#007acc"/>
  <text x="95" y="134" font-family="sans-serif" font-size="9" fill="#fff" text-anchor="middle" font-weight="bold">4</text>
</svg>